<mxfile host="Electron" modified="2024-02-05T11:55:22.705Z" agent="Mozilla/5.0 (Windows NT 10.0; Win64; x64) AppleWebKit/537.36 (KHTML, like Gecko) draw.io/23.0.2 Chrome/120.0.6099.109 Electron/28.1.0 Safari/537.36" etag="OsgPeZQzne3XFNTer9Sv" version="23.0.2" type="device">
  <diagram name="Page-1" id="U45NYtDjEI4FAYeAbNTo">
    <mxGraphModel dx="1727" dy="1010" grid="1" gridSize="10" guides="1" tooltips="1" connect="1" arrows="1" fold="1" page="1" pageScale="1" pageWidth="850" pageHeight="1100" math="0" shadow="0">
      <root>
        <mxCell id="0" />
        <mxCell id="1" parent="0" />
        <mxCell id="f0f37uDkfxdpjLOnputG-7" value="" style="rounded=0;whiteSpace=wrap;html=1;" parent="1" vertex="1">
          <mxGeometry x="690" y="570" width="460" height="220" as="geometry" />
        </mxCell>
        <mxCell id="f0f37uDkfxdpjLOnputG-5" value="" style="rounded=0;whiteSpace=wrap;html=1;" parent="1" vertex="1">
          <mxGeometry x="730" y="30" width="750" height="500" as="geometry" />
        </mxCell>
        <mxCell id="f0f37uDkfxdpjLOnputG-3" value="" style="rounded=0;whiteSpace=wrap;html=1;" parent="1" vertex="1">
          <mxGeometry x="10" y="30" width="580" height="590" as="geometry" />
        </mxCell>
        <mxCell id="TPfpgC2MNn1oKyn_6Xrf-15" style="edgeStyle=orthogonalEdgeStyle;rounded=0;orthogonalLoop=1;jettySize=auto;html=1;entryX=0;entryY=0.5;entryDx=0;entryDy=0;exitX=1.001;exitY=0.427;exitDx=0;exitDy=0;exitPerimeter=0;" parent="1" source="TPfpgC2MNn1oKyn_6Xrf-1" target="TPfpgC2MNn1oKyn_6Xrf-2" edge="1">
          <mxGeometry relative="1" as="geometry">
            <Array as="points">
              <mxPoint x="492" y="309" />
            </Array>
          </mxGeometry>
        </mxCell>
        <mxCell id="TPfpgC2MNn1oKyn_6Xrf-1" value="" style="rounded=0;whiteSpace=wrap;html=1;" parent="1" vertex="1">
          <mxGeometry x="100" y="130" width="390" height="420" as="geometry" />
        </mxCell>
        <mxCell id="TPfpgC2MNn1oKyn_6Xrf-2" value="" style="rounded=0;whiteSpace=wrap;html=1;" parent="1" vertex="1">
          <mxGeometry x="820" y="130" width="530" height="360" as="geometry" />
        </mxCell>
        <mxCell id="TPfpgC2MNn1oKyn_6Xrf-3" value="" style="rounded=0;whiteSpace=wrap;html=1;" parent="1" vertex="1">
          <mxGeometry x="770" y="650" width="290" height="110" as="geometry" />
        </mxCell>
        <mxCell id="TPfpgC2MNn1oKyn_6Xrf-4" value="Frontend (React.js)" style="text;html=1;strokeColor=none;fillColor=none;align=center;verticalAlign=middle;whiteSpace=wrap;rounded=0;fontSize=18;" parent="1" vertex="1">
          <mxGeometry x="110" y="100" width="390" height="30" as="geometry" />
        </mxCell>
        <mxCell id="TPfpgC2MNn1oKyn_6Xrf-5" value="Backend (Node.js)" style="text;html=1;strokeColor=none;fillColor=none;align=center;verticalAlign=middle;whiteSpace=wrap;rounded=0;fontSize=18;" parent="1" vertex="1">
          <mxGeometry x="820" y="100" width="530" height="30" as="geometry" />
        </mxCell>
        <mxCell id="TPfpgC2MNn1oKyn_6Xrf-6" value="Database (MongoDB)" style="text;html=1;strokeColor=none;fillColor=none;align=center;verticalAlign=middle;whiteSpace=wrap;rounded=0;fontSize=18;" parent="1" vertex="1">
          <mxGeometry x="770" y="620" width="290" height="30" as="geometry" />
        </mxCell>
        <mxCell id="TPfpgC2MNn1oKyn_6Xrf-31" style="edgeStyle=orthogonalEdgeStyle;rounded=0;orthogonalLoop=1;jettySize=auto;html=1;entryX=1;entryY=0.5;entryDx=0;entryDy=0;" parent="1" source="TPfpgC2MNn1oKyn_6Xrf-8" target="TPfpgC2MNn1oKyn_6Xrf-28" edge="1">
          <mxGeometry relative="1" as="geometry" />
        </mxCell>
        <mxCell id="TPfpgC2MNn1oKyn_6Xrf-32" style="edgeStyle=orthogonalEdgeStyle;rounded=0;orthogonalLoop=1;jettySize=auto;html=1;entryX=0;entryY=0.5;entryDx=0;entryDy=0;" parent="1" source="TPfpgC2MNn1oKyn_6Xrf-8" target="TPfpgC2MNn1oKyn_6Xrf-29" edge="1">
          <mxGeometry relative="1" as="geometry" />
        </mxCell>
        <mxCell id="TPfpgC2MNn1oKyn_6Xrf-8" value="Services" style="rounded=0;whiteSpace=wrap;html=1;fontStyle=1" parent="1" vertex="1">
          <mxGeometry x="257.5" y="410" width="70" height="30" as="geometry" />
        </mxCell>
        <mxCell id="TPfpgC2MNn1oKyn_6Xrf-23" style="edgeStyle=orthogonalEdgeStyle;rounded=0;orthogonalLoop=1;jettySize=auto;html=1;entryX=0.5;entryY=0;entryDx=0;entryDy=0;" parent="1" source="TPfpgC2MNn1oKyn_6Xrf-9" target="TPfpgC2MNn1oKyn_6Xrf-22" edge="1">
          <mxGeometry relative="1" as="geometry" />
        </mxCell>
        <mxCell id="TPfpgC2MNn1oKyn_6Xrf-9" value="Controllers" style="rounded=0;whiteSpace=wrap;html=1;fontStyle=1" parent="1" vertex="1">
          <mxGeometry x="830" y="160" width="120" height="60" as="geometry" />
        </mxCell>
        <mxCell id="TPfpgC2MNn1oKyn_6Xrf-25" style="edgeStyle=orthogonalEdgeStyle;rounded=0;orthogonalLoop=1;jettySize=auto;html=1;entryX=0.5;entryY=0;entryDx=0;entryDy=0;" parent="1" source="TPfpgC2MNn1oKyn_6Xrf-10" target="TPfpgC2MNn1oKyn_6Xrf-24" edge="1">
          <mxGeometry relative="1" as="geometry" />
        </mxCell>
        <mxCell id="TPfpgC2MNn1oKyn_6Xrf-58" style="edgeStyle=orthogonalEdgeStyle;rounded=0;orthogonalLoop=1;jettySize=auto;html=1;" parent="1" source="TPfpgC2MNn1oKyn_6Xrf-10" target="TPfpgC2MNn1oKyn_6Xrf-57" edge="1">
          <mxGeometry relative="1" as="geometry" />
        </mxCell>
        <mxCell id="TPfpgC2MNn1oKyn_6Xrf-60" style="edgeStyle=orthogonalEdgeStyle;rounded=0;orthogonalLoop=1;jettySize=auto;html=1;entryX=0;entryY=0.5;entryDx=0;entryDy=0;exitX=0.5;exitY=1;exitDx=0;exitDy=0;" parent="1" source="TPfpgC2MNn1oKyn_6Xrf-10" target="TPfpgC2MNn1oKyn_6Xrf-59" edge="1">
          <mxGeometry relative="1" as="geometry">
            <Array as="points">
              <mxPoint x="1070" y="240" />
              <mxPoint x="1090" y="240" />
            </Array>
          </mxGeometry>
        </mxCell>
        <mxCell id="TPfpgC2MNn1oKyn_6Xrf-10" value="Models" style="rounded=0;whiteSpace=wrap;html=1;fontStyle=1" parent="1" vertex="1">
          <mxGeometry x="1010" y="160" width="120" height="60" as="geometry" />
        </mxCell>
        <mxCell id="TPfpgC2MNn1oKyn_6Xrf-27" style="edgeStyle=orthogonalEdgeStyle;rounded=0;orthogonalLoop=1;jettySize=auto;html=1;entryX=0.5;entryY=0;entryDx=0;entryDy=0;" parent="1" source="TPfpgC2MNn1oKyn_6Xrf-11" target="TPfpgC2MNn1oKyn_6Xrf-26" edge="1">
          <mxGeometry relative="1" as="geometry" />
        </mxCell>
        <mxCell id="TPfpgC2MNn1oKyn_6Xrf-11" value="Services" style="rounded=0;whiteSpace=wrap;html=1;fontStyle=1" parent="1" vertex="1">
          <mxGeometry x="1220" y="160" width="120" height="60" as="geometry" />
        </mxCell>
        <mxCell id="TPfpgC2MNn1oKyn_6Xrf-13" value="minutes" style="rounded=0;whiteSpace=wrap;html=1;" parent="1" vertex="1">
          <mxGeometry x="855" y="675" width="120" height="60" as="geometry" />
        </mxCell>
        <mxCell id="TPfpgC2MNn1oKyn_6Xrf-16" value="" style="endArrow=classic;html=1;rounded=0;exitX=-0.003;exitY=0.608;exitDx=0;exitDy=0;exitPerimeter=0;" parent="1" source="TPfpgC2MNn1oKyn_6Xrf-2" edge="1">
          <mxGeometry width="50" height="50" relative="1" as="geometry">
            <mxPoint x="821" y="348" as="sourcePoint" />
            <mxPoint x="490" y="349" as="targetPoint" />
          </mxGeometry>
        </mxCell>
        <mxCell id="TPfpgC2MNn1oKyn_6Xrf-17" value="Axios" style="text;html=1;strokeColor=none;fillColor=none;align=center;verticalAlign=middle;whiteSpace=wrap;rounded=0;" parent="1" vertex="1">
          <mxGeometry x="570" y="280" width="160" height="30" as="geometry" />
        </mxCell>
        <mxCell id="TPfpgC2MNn1oKyn_6Xrf-18" value="Express" style="text;html=1;strokeColor=none;fillColor=none;align=center;verticalAlign=middle;whiteSpace=wrap;rounded=0;" parent="1" vertex="1">
          <mxGeometry x="620" y="320" width="60" height="30" as="geometry" />
        </mxCell>
        <mxCell id="TPfpgC2MNn1oKyn_6Xrf-19" value="HTTP (REST API)" style="text;html=1;strokeColor=none;fillColor=none;align=center;verticalAlign=middle;whiteSpace=wrap;rounded=0;fontSize=24;" parent="1" vertex="1">
          <mxGeometry x="590" y="230" width="140" height="30" as="geometry" />
        </mxCell>
        <mxCell id="TPfpgC2MNn1oKyn_6Xrf-20" value="" style="endArrow=classic;startArrow=classic;html=1;rounded=0;entryX=0.5;entryY=1;entryDx=0;entryDy=0;exitX=1;exitY=0.5;exitDx=0;exitDy=0;" parent="1" source="TPfpgC2MNn1oKyn_6Xrf-3" target="TPfpgC2MNn1oKyn_6Xrf-2" edge="1">
          <mxGeometry width="50" height="50" relative="1" as="geometry">
            <mxPoint x="1030" y="710" as="sourcePoint" />
            <mxPoint x="1080" y="660" as="targetPoint" />
            <Array as="points">
              <mxPoint x="1085" y="705" />
            </Array>
          </mxGeometry>
        </mxCell>
        <mxCell id="TPfpgC2MNn1oKyn_6Xrf-22" value="&lt;b&gt;minutesController&lt;/b&gt;&lt;br&gt;+getById&lt;br&gt;+post&lt;br&gt;+patch" style="rounded=0;whiteSpace=wrap;html=1;" parent="1" vertex="1">
          <mxGeometry x="830" y="257.5" width="120" height="75" as="geometry" />
        </mxCell>
        <mxCell id="TPfpgC2MNn1oKyn_6Xrf-24" value="&lt;b&gt;Minutes&lt;/b&gt;&lt;br&gt;+name: String&lt;br&gt;+id: String&lt;br&gt;+color: String&lt;br&gt;+segment: Segment[]&lt;br&gt;+startTime: Date&lt;br&gt;+signature: Signature[]" style="rounded=0;whiteSpace=wrap;html=1;" parent="1" vertex="1">
          <mxGeometry x="960" y="260" width="120" height="130" as="geometry" />
        </mxCell>
        <mxCell id="TPfpgC2MNn1oKyn_6Xrf-26" value="&lt;b&gt;minutesService&lt;/b&gt;&lt;br&gt;+getById&lt;br&gt;+save&lt;br&gt;+update" style="rounded=0;whiteSpace=wrap;html=1;" parent="1" vertex="1">
          <mxGeometry x="1220" y="265" width="120" height="75" as="geometry" />
        </mxCell>
        <mxCell id="TPfpgC2MNn1oKyn_6Xrf-28" value="&lt;b&gt;PDFService&lt;/b&gt;&lt;br&gt;+getPreview&lt;br&gt;+download" style="rounded=0;whiteSpace=wrap;html=1;" parent="1" vertex="1">
          <mxGeometry x="200" y="460" width="70" height="60" as="geometry" />
        </mxCell>
        <mxCell id="TPfpgC2MNn1oKyn_6Xrf-29" value="&lt;b&gt;minutesService&lt;br&gt;&lt;/b&gt;+getById&lt;br&gt;+save&lt;br&gt;+update" style="rounded=0;whiteSpace=wrap;html=1;" parent="1" vertex="1">
          <mxGeometry x="320" y="460" width="100" height="60" as="geometry" />
        </mxCell>
        <mxCell id="TPfpgC2MNn1oKyn_6Xrf-33" value="State Management: React ContextAPI" style="rounded=0;whiteSpace=wrap;html=1;" parent="1" vertex="1">
          <mxGeometry x="117.5" y="260" width="117.5" height="35" as="geometry" />
        </mxCell>
        <mxCell id="TPfpgC2MNn1oKyn_6Xrf-39" style="edgeStyle=orthogonalEdgeStyle;rounded=0;orthogonalLoop=1;jettySize=auto;html=1;entryX=0.5;entryY=0;entryDx=0;entryDy=0;" parent="1" source="TPfpgC2MNn1oKyn_6Xrf-35" target="TPfpgC2MNn1oKyn_6Xrf-36" edge="1">
          <mxGeometry relative="1" as="geometry" />
        </mxCell>
        <mxCell id="TPfpgC2MNn1oKyn_6Xrf-35" value="Components" style="rounded=0;whiteSpace=wrap;html=1;fontStyle=1" parent="1" vertex="1">
          <mxGeometry x="232.5" y="180" width="125" height="40" as="geometry" />
        </mxCell>
        <mxCell id="TPfpgC2MNn1oKyn_6Xrf-42" style="edgeStyle=orthogonalEdgeStyle;rounded=0;orthogonalLoop=1;jettySize=auto;html=1;entryX=0.5;entryY=0;entryDx=0;entryDy=0;" parent="1" source="TPfpgC2MNn1oKyn_6Xrf-36" target="TPfpgC2MNn1oKyn_6Xrf-41" edge="1">
          <mxGeometry relative="1" as="geometry" />
        </mxCell>
        <mxCell id="TPfpgC2MNn1oKyn_6Xrf-44" style="edgeStyle=orthogonalEdgeStyle;rounded=0;orthogonalLoop=1;jettySize=auto;html=1;entryX=1;entryY=0.5;entryDx=0;entryDy=0;strokeColor=default;endArrow=none;endFill=0;" parent="1" source="TPfpgC2MNn1oKyn_6Xrf-36" target="TPfpgC2MNn1oKyn_6Xrf-33" edge="1">
          <mxGeometry relative="1" as="geometry">
            <Array as="points">
              <mxPoint x="295" y="278" />
              <mxPoint x="243" y="278" />
            </Array>
          </mxGeometry>
        </mxCell>
        <mxCell id="TPfpgC2MNn1oKyn_6Xrf-36" value="main.jsx" style="rounded=0;whiteSpace=wrap;html=1;" parent="1" vertex="1">
          <mxGeometry x="262.5" y="245" width="65" height="20" as="geometry" />
        </mxCell>
        <mxCell id="TPfpgC2MNn1oKyn_6Xrf-38" value="TopBar.jsx" style="rounded=0;whiteSpace=wrap;html=1;" parent="1" vertex="1">
          <mxGeometry x="160" y="340" width="80" height="20" as="geometry" />
        </mxCell>
        <mxCell id="TPfpgC2MNn1oKyn_6Xrf-45" style="edgeStyle=orthogonalEdgeStyle;rounded=0;orthogonalLoop=1;jettySize=auto;html=1;" parent="1" source="TPfpgC2MNn1oKyn_6Xrf-41" target="TPfpgC2MNn1oKyn_6Xrf-38" edge="1">
          <mxGeometry relative="1" as="geometry">
            <Array as="points">
              <mxPoint x="295" y="320" />
              <mxPoint x="200" y="320" />
            </Array>
          </mxGeometry>
        </mxCell>
        <mxCell id="TPfpgC2MNn1oKyn_6Xrf-47" style="edgeStyle=orthogonalEdgeStyle;rounded=0;orthogonalLoop=1;jettySize=auto;html=1;entryX=0.5;entryY=0;entryDx=0;entryDy=0;" parent="1" source="TPfpgC2MNn1oKyn_6Xrf-41" target="TPfpgC2MNn1oKyn_6Xrf-46" edge="1">
          <mxGeometry relative="1" as="geometry" />
        </mxCell>
        <mxCell id="TPfpgC2MNn1oKyn_6Xrf-49" style="edgeStyle=orthogonalEdgeStyle;rounded=0;orthogonalLoop=1;jettySize=auto;html=1;" parent="1" source="TPfpgC2MNn1oKyn_6Xrf-41" target="TPfpgC2MNn1oKyn_6Xrf-48" edge="1">
          <mxGeometry relative="1" as="geometry">
            <Array as="points">
              <mxPoint x="295" y="320" />
              <mxPoint x="395" y="320" />
            </Array>
          </mxGeometry>
        </mxCell>
        <mxCell id="TPfpgC2MNn1oKyn_6Xrf-41" value="App.jsx" style="rounded=0;whiteSpace=wrap;html=1;" parent="1" vertex="1">
          <mxGeometry x="262.5" y="290" width="65" height="20" as="geometry" />
        </mxCell>
        <mxCell id="TPfpgC2MNn1oKyn_6Xrf-46" value="Editor.jsx" style="rounded=0;whiteSpace=wrap;html=1;" parent="1" vertex="1">
          <mxGeometry x="255" y="340" width="80" height="20" as="geometry" />
        </mxCell>
        <mxCell id="TPfpgC2MNn1oKyn_6Xrf-48" value="Footer.jsx" style="rounded=0;whiteSpace=wrap;html=1;" parent="1" vertex="1">
          <mxGeometry x="355" y="340" width="80" height="20" as="geometry" />
        </mxCell>
        <mxCell id="TPfpgC2MNn1oKyn_6Xrf-51" value="" style="endArrow=classic;html=1;rounded=0;exitX=1;exitY=0.25;exitDx=0;exitDy=0;" parent="1" source="TPfpgC2MNn1oKyn_6Xrf-29" edge="1">
          <mxGeometry width="50" height="50" relative="1" as="geometry">
            <mxPoint x="420" y="630" as="sourcePoint" />
            <mxPoint x="490" y="310" as="targetPoint" />
            <Array as="points">
              <mxPoint x="470" y="475" />
              <mxPoint x="470" y="310" />
            </Array>
          </mxGeometry>
        </mxCell>
        <mxCell id="TPfpgC2MNn1oKyn_6Xrf-52" value="" style="endArrow=classic;html=1;rounded=0;exitX=1.003;exitY=0.521;exitDx=0;exitDy=0;exitPerimeter=0;entryX=1;entryY=0.75;entryDx=0;entryDy=0;" parent="1" source="TPfpgC2MNn1oKyn_6Xrf-1" target="TPfpgC2MNn1oKyn_6Xrf-29" edge="1">
          <mxGeometry width="50" height="50" relative="1" as="geometry">
            <mxPoint x="520" y="470" as="sourcePoint" />
            <mxPoint x="570" y="420" as="targetPoint" />
            <Array as="points">
              <mxPoint x="480" y="349" />
              <mxPoint x="480" y="505" />
            </Array>
          </mxGeometry>
        </mxCell>
        <mxCell id="TPfpgC2MNn1oKyn_6Xrf-56" value="" style="endArrow=classic;html=1;rounded=0;exitX=0.5;exitY=1;exitDx=0;exitDy=0;entryX=0.5;entryY=1;entryDx=0;entryDy=0;startArrow=classic;startFill=1;" parent="1" source="TPfpgC2MNn1oKyn_6Xrf-26" target="TPfpgC2MNn1oKyn_6Xrf-2" edge="1">
          <mxGeometry width="50" height="50" relative="1" as="geometry">
            <mxPoint x="1200" y="450" as="sourcePoint" />
            <mxPoint x="1250" y="400" as="targetPoint" />
            <Array as="points">
              <mxPoint x="1280" y="450" />
              <mxPoint x="1180" y="450" />
              <mxPoint x="1085" y="450" />
            </Array>
          </mxGeometry>
        </mxCell>
        <mxCell id="TPfpgC2MNn1oKyn_6Xrf-57" value="&lt;b&gt;Segment&lt;/b&gt;&lt;br&gt;+name: String&lt;br&gt;+content: String[]" style="rounded=0;whiteSpace=wrap;html=1;" parent="1" vertex="1">
          <mxGeometry x="1100" y="260" width="110" height="50" as="geometry" />
        </mxCell>
        <mxCell id="TPfpgC2MNn1oKyn_6Xrf-59" value="&lt;b&gt;Signature&lt;/b&gt;&lt;br&gt;+signer: String&lt;br&gt;+timestamp: Date&lt;br&gt;+Image: String (base64)" style="rounded=0;whiteSpace=wrap;html=1;" parent="1" vertex="1">
          <mxGeometry x="1100" y="320" width="110" height="80" as="geometry" />
        </mxCell>
        <mxCell id="f0f37uDkfxdpjLOnputG-4" value="&lt;font style=&quot;font-size: 24px;&quot;&gt;Client&lt;/font&gt;" style="text;html=1;strokeColor=none;fillColor=none;align=center;verticalAlign=middle;whiteSpace=wrap;rounded=0;" parent="1" vertex="1">
          <mxGeometry x="257.5" y="40" width="60" height="30" as="geometry" />
        </mxCell>
        <mxCell id="f0f37uDkfxdpjLOnputG-6" value="&lt;span style=&quot;font-size: 24px;&quot;&gt;Server&lt;/span&gt;" style="text;html=1;strokeColor=none;fillColor=none;align=center;verticalAlign=middle;whiteSpace=wrap;rounded=0;" parent="1" vertex="1">
          <mxGeometry x="1020" y="40" width="110" height="30" as="geometry" />
        </mxCell>
        <mxCell id="f0f37uDkfxdpjLOnputG-9" value="&lt;span style=&quot;font-size: 24px;&quot;&gt;Database server&lt;/span&gt;" style="text;html=1;strokeColor=none;fillColor=none;align=center;verticalAlign=middle;whiteSpace=wrap;rounded=0;" parent="1" vertex="1">
          <mxGeometry x="787.5" y="585" width="255" height="30" as="geometry" />
        </mxCell>
        <mxCell id="f0f37uDkfxdpjLOnputG-10" value="&lt;b&gt;ODM&lt;/b&gt;&lt;br&gt;Mongoose" style="rounded=0;whiteSpace=wrap;html=1;" parent="1" vertex="1">
          <mxGeometry x="1130" y="420" width="120" height="60" as="geometry" />
        </mxCell>
      </root>
    </mxGraphModel>
  </diagram>
</mxfile>
